<svg width="9" height="7" viewBox="0 0 9 7" fill="none" xmlns="http://www.w3.org/2000/svg">
<path d="M8.20161 2.04252C8.1871 2.00604 8.17185 1.96957 8.15625 1.9331C7.92211 1.39038 7.54318 0.923326 7.06137 0.583577H7.83871C7.91571 0.583577 7.98955 0.552835 8.044 0.498114C8.09844 0.443393 8.12903 0.369175 8.12903 0.291788C8.12903 0.214401 8.09844 0.140184 8.044 0.0854627C7.98955 0.0307418 7.91571 0 7.83871 0H4.06452C3.26181 0.00102439 2.48884 0.305413 1.8991 0.852723C1.30936 1.40003 0.945986 2.15023 0.881129 2.95436C0.630349 3.01701 0.407526 3.16194 0.247931 3.36621C0.0883367 3.57047 0.00108926 3.8224 0 4.08212C0 4.1595 0.0305875 4.23372 0.0850335 4.28844C0.13948 4.34316 0.213324 4.37391 0.290323 4.37391C0.367321 4.37391 0.441166 4.34316 0.495612 4.28844C0.550058 4.23372 0.580645 4.1595 0.580645 4.08212C0.580713 3.97571 0.609724 3.87136 0.66454 3.78033C0.719356 3.6893 0.797892 3.61506 0.891653 3.56565C0.963917 4.2203 1.23552 4.83656 1.66935 5.33024L2.12516 6.61265C2.16546 6.72608 2.23969 6.8242 2.33767 6.89355C2.43565 6.96291 2.55258 7.00009 2.67242 7H3.13403C3.25381 7.00001 3.37066 6.9628 3.46857 6.89345C3.56648 6.8241 3.64065 6.72602 3.68093 6.61265L3.7506 6.41642H5.83004L5.89972 6.61265C5.93999 6.72602 6.01417 6.8241 6.11208 6.89345C6.20998 6.9628 6.32684 7.00001 6.44661 7H6.90823C7.028 7.00001 7.14485 6.9628 7.24276 6.89345C7.34067 6.8241 7.41485 6.72602 7.45512 6.61265L8.04339 4.95748H8.12903C8.36003 4.95748 8.58156 4.86526 8.7449 4.70109C8.90824 4.53693 9 4.31428 9 4.08212V2.91496C9.00003 2.69541 8.91797 2.48386 8.77009 2.32226C8.62221 2.16066 8.4193 2.06081 8.20161 2.04252ZM5.51613 1.45602H4.06452C3.98752 1.45602 3.91367 1.42528 3.85923 1.37056C3.80478 1.31584 3.77419 1.24162 3.77419 1.16423C3.77419 1.08685 3.80478 1.01263 3.85923 0.95791C3.91367 0.903189 3.98752 0.872447 4.06452 0.872447H5.51613C5.59313 0.872447 5.66697 0.903189 5.72142 0.95791C5.77586 1.01263 5.80645 1.08685 5.80645 1.16423C5.80645 1.24162 5.77586 1.31584 5.72142 1.37056C5.66697 1.42528 5.59313 1.45602 5.51613 1.45602ZM6.53226 3.49854C6.44613 3.49854 6.36193 3.47287 6.29032 3.42478C6.2187 3.37669 6.16288 3.30833 6.12992 3.22835C6.09696 3.14838 6.08834 3.06037 6.10514 2.97547C6.12194 2.89057 6.16342 2.81258 6.22432 2.75137C6.28523 2.69016 6.36282 2.64847 6.4473 2.63159C6.53177 2.6147 6.61934 2.62337 6.69891 2.65649C6.77848 2.68962 6.8465 2.74572 6.89435 2.8177C6.9422 2.88967 6.96774 2.97429 6.96774 3.06086C6.96774 3.17694 6.92186 3.28827 6.84019 3.37035C6.75852 3.45243 6.64776 3.49854 6.53226 3.49854Z" fill="white"/>
</svg>
