<svg width="7" height="7" viewBox="0 0 7 7" fill="none" xmlns="http://www.w3.org/2000/svg">
<path d="M6.75 6.5H6V0.5H6.25C6.3163 0.5 6.37989 0.473661 6.42678 0.426777C6.47366 0.379893 6.5 0.316304 6.5 0.25C6.5 0.183696 6.47366 0.120107 6.42678 0.0732233C6.37989 0.0263392 6.3163 0 6.25 0H0.75C0.683696 0 0.620107 0.0263392 0.573223 0.0732233C0.526339 0.120107 0.5 0.183696 0.5 0.25C0.5 0.316304 0.526339 0.379893 0.573223 0.426777C0.620107 0.473661 0.683696 0.5 0.75 0.5H1V6.5H0.25C0.183696 6.5 0.120107 6.52634 0.0732233 6.57322C0.0263392 6.62011 0 6.6837 0 6.75C0 6.8163 0.0263392 6.87989 0.0732233 6.92678C0.120107 6.97366 0.183696 7 0.25 7H6.75C6.8163 7 6.87989 6.97366 6.92678 6.92678C6.97366 6.87989 7 6.8163 7 6.75C7 6.6837 6.97366 6.62011 6.92678 6.57322C6.87989 6.52634 6.8163 6.5 6.75 6.5ZM2.25 1.25H3C3.0663 1.25 3.12989 1.27634 3.17678 1.32322C3.22366 1.37011 3.25 1.4337 3.25 1.5C3.25 1.5663 3.22366 1.62989 3.17678 1.67678C3.12989 1.72366 3.0663 1.75 3 1.75H2.25C2.1837 1.75 2.12011 1.72366 2.07322 1.67678C2.02634 1.62989 2 1.5663 2 1.5C2 1.4337 2.02634 1.37011 2.07322 1.32322C2.12011 1.27634 2.1837 1.25 2.25 1.25ZM2.25 2.5H3C3.0663 2.5 3.12989 2.52634 3.17678 2.57322C3.22366 2.62011 3.25 2.6837 3.25 2.75C3.25 2.8163 3.22366 2.87989 3.17678 2.92678C3.12989 2.97366 3.0663 3 3 3H2.25C2.1837 3 2.12011 2.97366 2.07322 2.92678C2.02634 2.87989 2 2.8163 2 2.75C2 2.6837 2.02634 2.62011 2.07322 2.57322C2.12011 2.52634 2.1837 2.5 2.25 2.5ZM2 4C2 3.9337 2.02634 3.87011 2.07322 3.82322C2.12011 3.77634 2.1837 3.75 2.25 3.75H3C3.0663 3.75 3.12989 3.77634 3.17678 3.82322C3.22366 3.87011 3.25 3.9337 3.25 4C3.25 4.0663 3.22366 4.12989 3.17678 4.17678C3.12989 4.22366 3.0663 4.25 3 4.25H2.25C2.1837 4.25 2.12011 4.22366 2.07322 4.17678C2.02634 4.12989 2 4.0663 2 4ZM4.25 6.5H2.75V5.25H4.25V6.5ZM4.75 4.25H4C3.9337 4.25 3.87011 4.22366 3.82322 4.17678C3.77634 4.12989 3.75 4.0663 3.75 4C3.75 3.9337 3.77634 3.87011 3.82322 3.82322C3.87011 3.77634 3.9337 3.75 4 3.75H4.75C4.8163 3.75 4.87989 3.77634 4.92678 3.82322C4.97366 3.87011 5 3.9337 5 4C5 4.0663 4.97366 4.12989 4.92678 4.17678C4.87989 4.22366 4.8163 4.25 4.75 4.25ZM4.75 3H4C3.9337 3 3.87011 2.97366 3.82322 2.92678C3.77634 2.87989 3.75 2.8163 3.75 2.75C3.75 2.6837 3.77634 2.62011 3.82322 2.57322C3.87011 2.52634 3.9337 2.5 4 2.5H4.75C4.8163 2.5 4.87989 2.52634 4.92678 2.57322C4.97366 2.62011 5 2.6837 5 2.75C5 2.8163 4.97366 2.87989 4.92678 2.92678C4.87989 2.97366 4.8163 3 4.75 3ZM4.75 1.75H4C3.9337 1.75 3.87011 1.72366 3.82322 1.67678C3.77634 1.62989 3.75 1.5663 3.75 1.5C3.75 1.4337 3.77634 1.37011 3.82322 1.32322C3.87011 1.27634 3.9337 1.25 4 1.25H4.75C4.8163 1.25 4.87989 1.27634 4.92678 1.32322C4.97366 1.37011 5 1.4337 5 1.5C5 1.5663 4.97366 1.62989 4.92678 1.67678C4.87989 1.72366 4.8163 1.75 4.75 1.75Z" fill="white"/>
</svg>
