<svg width="7" height="7" viewBox="0 0 7 7" fill="none" xmlns="http://www.w3.org/2000/svg">
<path d="M7 6.69565C7 6.77637 6.97164 6.85378 6.92114 6.91086C6.87065 6.96793 6.80217 7 6.73077 7H0.269231C0.197826 7 0.129346 6.96793 0.0788559 6.91086C0.0283653 6.85378 0 6.77637 0 6.69565C0 6.61493 0.0283653 6.53752 0.0788559 6.48045C0.129346 6.42337 0.197826 6.3913 0.269231 6.3913H0.538462V3.95652C0.538462 3.8758 0.566827 3.79839 0.617317 3.74131C0.667808 3.68424 0.736288 3.65217 0.807692 3.65217H1.61538C1.68679 3.65217 1.75527 3.68424 1.80576 3.74131C1.85625 3.79839 1.88462 3.8758 1.88462 3.95652V6.3913H2.42308V2.13043C2.42308 2.04972 2.45144 1.9723 2.50193 1.91523C2.55242 1.85815 2.6209 1.82609 2.69231 1.82609H3.76923C3.84064 1.82609 3.90912 1.85815 3.95961 1.91523C4.0101 1.9723 4.03846 2.04972 4.03846 2.13043V6.3913H4.57692V0.304348C4.57692 0.22363 4.60529 0.146218 4.65578 0.0891415C4.70627 0.0320652 4.77475 0 4.84615 0H6.19231C6.26371 0 6.33219 0.0320652 6.38268 0.0891415C6.43317 0.146218 6.46154 0.22363 6.46154 0.304348V6.3913H6.73077C6.80217 6.3913 6.87065 6.42337 6.92114 6.48045C6.97164 6.53752 7 6.61493 7 6.69565Z" fill="white"/>
</svg>
