<svg width="7" height="7" viewBox="0 0 7 7" fill="none" xmlns="http://www.w3.org/2000/svg">
<path d="M3.5 0C2.80777 0 2.13108 0.205271 1.55551 0.589856C0.979934 0.974441 0.53133 1.52107 0.266423 2.16061C0.0015165 2.80015 -0.0677952 3.50388 0.0672531 4.18282C0.202301 4.86175 0.535644 5.48539 1.02513 5.97487C1.51461 6.46436 2.13825 6.7977 2.81718 6.93275C3.49612 7.0678 4.19985 6.99848 4.83939 6.73358C5.47893 6.46867 6.02556 6.02007 6.41014 5.44449C6.79473 4.86892 7 4.19223 7 3.5C6.99902 2.57204 6.62996 1.68237 5.97379 1.02621C5.31763 0.370043 4.42796 0.000979939 3.5 0ZM4.7674 4.38644C4.79242 4.41146 4.81226 4.44115 4.8258 4.47383C4.83934 4.50652 4.8463 4.54155 4.8463 4.57692C4.8463 4.6123 4.83934 4.64733 4.8258 4.68001C4.81226 4.71269 4.79242 4.74239 4.7674 4.7674C4.74239 4.79242 4.71269 4.81226 4.68001 4.8258C4.64733 4.83933 4.6123 4.8463 4.57692 4.8463C4.54155 4.8463 4.50652 4.83933 4.47384 4.8258C4.44115 4.81226 4.41146 4.79242 4.38644 4.7674L3.5 3.88062L2.61356 4.7674C2.58854 4.79242 2.55885 4.81226 2.52617 4.8258C2.49348 4.83933 2.45845 4.8463 2.42308 4.8463C2.3877 4.8463 2.35267 4.83933 2.31999 4.8258C2.28731 4.81226 2.25761 4.79242 2.2326 4.7674C2.20758 4.74239 2.18774 4.71269 2.1742 4.68001C2.16067 4.64733 2.1537 4.6123 2.1537 4.57692C2.1537 4.54155 2.16067 4.50652 2.1742 4.47383C2.18774 4.44115 2.20758 4.41146 2.2326 4.38644L3.11938 3.5L2.2326 2.61356C2.18208 2.56304 2.1537 2.49452 2.1537 2.42308C2.1537 2.35163 2.18208 2.28311 2.2326 2.2326C2.28312 2.18208 2.35163 2.1537 2.42308 2.1537C2.49452 2.1537 2.56304 2.18208 2.61356 2.2326L3.5 3.11937L4.38644 2.2326C4.41146 2.20758 4.44115 2.18774 4.47384 2.1742C4.50652 2.16066 4.54155 2.1537 4.57692 2.1537C4.6123 2.1537 4.64733 2.16066 4.68001 2.1742C4.71269 2.18774 4.74239 2.20758 4.7674 2.2326C4.79242 2.25761 4.81226 2.28731 4.8258 2.31999C4.83934 2.35267 4.8463 2.3877 4.8463 2.42308C4.8463 2.45845 4.83934 2.49348 4.8258 2.52616C4.81226 2.55885 4.79242 2.58854 4.7674 2.61356L3.88063 3.5L4.7674 4.38644Z" fill="#22CB00"/>
</svg>
