<svg width="26" height="18" viewBox="0 0 26 18" fill="none" xmlns="http://www.w3.org/2000/svg">
<path d="M26 17V9.00028C26 8.73507 25.9022 8.48072 25.728 8.29319C25.5539 8.10566 25.3177 8.00031 25.0714 8.00031C24.8252 8.00031 24.589 8.10566 24.4149 8.29319C24.2407 8.48072 24.1429 8.73507 24.1429 9.00028V14.5864L14.5858 4.29292C14.4995 4.19995 14.3971 4.12619 14.2844 4.07587C14.1717 4.02555 14.0508 3.99965 13.9288 3.99965C13.8068 3.99965 13.686 4.02555 13.5732 4.07587C13.4605 4.12619 13.3581 4.19995 13.2719 4.29292L9.28605 8.58654L1.58602 0.293047C1.41179 0.105412 1.17547 0 0.929069 0C0.682665 0 0.446352 0.105412 0.272118 0.293047C0.0978838 0.480682 0 0.73517 0 1.00053C0 1.26588 0.0978838 1.52037 0.272118 1.708L8.62909 10.7077C8.71533 10.8007 8.81774 10.8745 8.93047 10.9248C9.04319 10.9751 9.16402 11.001 9.28605 11.001C9.40807 11.001 9.5289 10.9751 9.64163 10.9248C9.75435 10.8745 9.85676 10.8007 9.943 10.7077L13.9288 6.41411L22.8302 16.0001H17.643C17.3968 16.0001 17.1606 16.1054 16.9864 16.2929C16.8123 16.4805 16.7145 16.7348 16.7145 17C16.7145 17.2652 16.8123 17.5196 16.9864 17.7071C17.1606 17.8946 17.3968 18 17.643 18H25.0714C25.3177 18 25.5539 17.8946 25.728 17.7071C25.9022 17.5196 26 17.2652 26 17Z" fill="white"/>
</svg>
