<svg width="7" height="7" viewBox="0 0 7 7" fill="none" xmlns="http://www.w3.org/2000/svg">
<path d="M7 1.55572V6.61112C7 6.71426 6.95903 6.81317 6.8861 6.8861C6.81317 6.95903 6.71426 7 6.61112 7H1.55572C1.45259 7 1.35367 6.95903 1.28075 6.8861C1.20782 6.81317 1.16685 6.71426 1.16685 6.61112C1.16685 6.50799 1.20782 6.40907 1.28075 6.33615C1.35367 6.26322 1.45259 6.22225 1.55572 6.22225H5.67247L0.113963 0.664224C0.0409936 0.591255 -7.68854e-10 0.492287 0 0.389093C7.68854e-10 0.285899 0.0409936 0.186932 0.113963 0.113963C0.186932 0.0409936 0.285899 7.68854e-10 0.389093 0C0.492287 -7.68854e-10 0.591255 0.0409936 0.664224 0.113963L6.22225 5.67247V1.55572C6.22225 1.45259 6.26322 1.35367 6.33615 1.28075C6.40907 1.20782 6.50799 1.16685 6.61112 1.16685C6.71426 1.16685 6.81317 1.20782 6.8861 1.28075C6.95903 1.35367 7 1.45259 7 1.55572Z" fill="white"/>
</svg>
